<?xml version="1.0" standalone="no"?>
<!DOCTYPE svg PUBLIC "-//W3C//DTD SVG 20010904//EN"
 "http://www.w3.org/TR/2001/REC-SVG-20010904/DTD/svg10.dtd">
<svg version="1.0" xmlns="http://www.w3.org/2000/svg"
 width="660.000000pt" height="640.000000pt" viewBox="0 0 660.000000 640.000000"
 preserveAspectRatio="xMidYMid meet">

<g transform="translate(0.000000,640.000000) scale(0.100000,-0.100000)"
fill="#000000" stroke="none">
<path d="M1005 6280 c-55 -9 -201 -52 -231 -68 -11 -6 -44 -23 -74 -38 -126
-62 -258 -175 -351 -301 -55 -74 -124 -216 -153 -314 -52 -180 -50 -92 -48
-2368 1 -1901 3 -2134 18 -2219 36 -213 122 -386 268 -539 147 -156 325 -258
536 -308 71 -17 203 -18 2335 -16 1470 1 2280 5 2316 11 200 36 403 145 557
300 139 139 230 312 274 520 20 94 20 123 19 2249 0 1185 -3 2175 -7 2200 -38
281 -211 570 -432 720 -82 55 -228 125 -322 153 l-75 22 -2290 2 c-1259 1
-2312 -2 -2340 -6z m585 -970 c132 -21 267 -116 326 -231 40 -77 41 -170 1
-251 -30 -61 -105 -137 -169 -169 -104 -53 -278 -62 -388 -20 -190 73 -300
251 -248 402 48 143 223 265 398 278 8 0 44 -4 80 -9z m2710 -64 c176 -24 327
-66 470 -132 94 -44 305 -185 386 -258 122 -110 198 -329 203 -579 6 -298
-104 -554 -335 -780 -257 -252 -581 -387 -1159 -482 -121 -20 -276 -48 -345
-62 -678 -138 -1134 -464 -1404 -1001 -114 -228 -185 -465 -217 -725 l-12 -97
-364 0 -363 0 0 1585 0 1585 363 0 362 0 3 -452 c1 -249 2 -689 2 -978 l1
-525 28 72 c230 583 776 1001 1523 1167 62 14 199 36 303 50 274 37 369 55
467 87 278 90 409 243 409 478 1 221 -82 355 -283 457 -133 67 -328 87 -833
82 l-360 -3 -5 -499 -5 -498 -124 -44 c-193 -67 -375 -160 -523 -266 -37 -26
-70 -48 -73 -48 -3 0 -5 423 -5 940 l0 940 893 0 c710 0 913 -3 997 -14z m878
-2065 c131 -112 220 -229 288 -376 110 -238 124 -556 37 -845 -104 -349 -390
-632 -764 -753 -85 -28 -238 -61 -246 -54 -3 3 15 16 39 28 193 98 371 317
453 559 36 106 47 180 47 325 1 390 -197 674 -560 805 l-64 23 134 47 c212 75
350 146 493 254 33 25 63 46 67 46 4 0 38 -26 76 -59z m-2038 -987 l0 -395
563 3 c540 4 565 5 640 26 143 40 266 121 331 219 40 60 67 151 73 248 l6 90
19 -45 c65 -151 66 -375 4 -558 -55 -161 -157 -293 -320 -415 -149 -111 -353
-189 -587 -222 -84 -12 -237 -15 -781 -15 l-678 0 0 410 c0 464 -6 425 86 550
145 199 315 343 544 462 47 24 88 42 93 40 4 -2 7 -181 7 -398z"/>
</g>
</svg>
